solid OpenSCAD_Model
  facet normal -1 0 0
    outer loop
      vertex 0 0 0
      vertex 0 0 1
      vertex 0 20 0
    endloop
  endfacet
  facet normal -1 0 0
    outer loop
      vertex 0 20 0
      vertex 0 0 1
      vertex 0 20 1
    endloop
  endfacet
  facet normal 0 -1 0
    outer loop
      vertex 0 0 1
      vertex 0 0 0
      vertex 20 0 0
    endloop
  endfacet
  facet normal 0 -1 0
    outer loop
      vertex 20 0 1
      vertex 0 0 1
      vertex 20 0 0
    endloop
  endfacet
  facet normal 0 0 -1
    outer loop
      vertex 0 0 0
      vertex 0 20 0
      vertex 20 0 0
    endloop
  endfacet
  facet normal 0 0 -1
    outer loop
      vertex 20 0 0
      vertex 0 20 0
      vertex 20 20 0
    endloop
  endfacet
  facet normal 0 1 0
    outer loop
      vertex 0 20 0
      vertex 0 20 1
      vertex 20 20 0
    endloop
  endfacet
  facet normal 0 1 0
    outer loop
      vertex 20 20 0
      vertex 0 20 1
      vertex 20 20 1
    endloop
  endfacet
  facet normal 0 0 1
    outer loop
      vertex 0 20 1
      vertex 0 0 1
      vertex 20 0 1
    endloop
  endfacet
  facet normal 0 0 1
    outer loop
      vertex 20 20 1
      vertex 0 20 1
      vertex 20 0 1
    endloop
  endfacet
  facet normal 1 0 0
    outer loop
      vertex 20 0 1
      vertex 20 0 0
      vertex 20 20 0
    endloop
  endfacet
  facet normal 1 0 0
    outer loop
      vertex 20 20 1
      vertex 20 0 1
      vertex 20 20 0
    endloop
  endfacet
  facet normal -1 0 0
    outer loop
      vertex 0 0 2
      vertex 0 0 7
      vertex 0 20 2
    endloop
  endfacet
  facet normal -1 0 0
    outer loop
      vertex 0 20 2
      vertex 0 0 7
      vertex 0 20 7
    endloop
  endfacet
  facet normal 0 -1 0
    outer loop
      vertex 0 0 7
      vertex 0 0 2
      vertex 20 0 2
    endloop
  endfacet
  facet normal 0 -1 0
    outer loop
      vertex 20 0 7
      vertex 0 0 7
      vertex 20 0 2
    endloop
  endfacet
  facet normal 0 0 -1
    outer loop
      vertex 0 0 2
      vertex 0 20 2
      vertex 20 0 2
    endloop
  endfacet
  facet normal 0 0 -1
    outer loop
      vertex 20 0 2
      vertex 0 20 2
      vertex 20 20 2
    endloop
  endfacet
  facet normal 0 1 0
    outer loop
      vertex 0 20 2
      vertex 0 20 7
      vertex 20 20 2
    endloop
  endfacet
  facet normal 0 1 0
    outer loop
      vertex 20 20 2
      vertex 0 20 7
      vertex 20 20 7
    endloop
  endfacet
  facet normal 0 0 1
    outer loop
      vertex 0 20 7
      vertex 0 0 7
      vertex 20 0 7
    endloop
  endfacet
  facet normal 0 0 1
    outer loop
      vertex 20 20 7
      vertex 0 20 7
      vertex 20 0 7
    endloop
  endfacet
  facet normal 1 0 0
    outer loop
      vertex 20 0 7
      vertex 20 0 2
      vertex 20 20 2
    endloop
  endfacet
  facet normal 1 0 0
    outer loop
      vertex 20 20 7
      vertex 20 0 7
      vertex 20 20 2
    endloop
  endfacet
  facet normal -1 0 0
    outer loop
      vertex 0 0 8
      vertex 0 0 13
      vertex 0 20 8
    endloop
  endfacet
  facet normal -1 0 0
    outer loop
      vertex 0 20 8
      vertex 0 0 13
      vertex 0 20 13
    endloop
  endfacet
  facet normal 0 -1 0
    outer loop
      vertex 0 0 13
      vertex 0 0 8
      vertex 20 0 8
    endloop
  endfacet
  facet normal 0 -1 0
    outer loop
      vertex 20 0 13
      vertex 0 0 13
      vertex 20 0 8
    endloop
  endfacet
  facet normal 0 0 -1
    outer loop
      vertex 0 0 8
      vertex 0 20 8
      vertex 20 0 8
    endloop
  endfacet
  facet normal 0 0 -1
    outer loop
      vertex 20 0 8
      vertex 0 20 8
      vertex 20 20 8
    endloop
  endfacet
  facet normal 0 1 0
    outer loop
      vertex 0 20 8
      vertex 0 20 13
      vertex 20 20 8
    endloop
  endfacet
  facet normal 0 1 0
    outer loop
      vertex 20 20 8
      vertex 0 20 13
      vertex 20 20 13
    endloop
  endfacet
  facet normal 0 0 1
    outer loop
      vertex 0 20 13
      vertex 0 0 13
      vertex 20 0 13
    endloop
  endfacet
  facet normal 0 0 1
    outer loop
      vertex 20 20 13
      vertex 0 20 13
      vertex 20 0 13
    endloop
  endfacet
  facet normal 1 0 0
    outer loop
      vertex 20 0 13
      vertex 20 0 8
      vertex 20 20 8
    endloop
  endfacet
  facet normal 1 0 0
    outer loop
      vertex 20 20 13
      vertex 20 0 13
      vertex 20 20 8
    endloop
  endfacet
  facet normal -1 0 0
    outer loop
      vertex 0 0 14
      vertex 0 0 19
      vertex 0 20 14
    endloop
  endfacet
  facet normal -1 0 0
    outer loop
      vertex 0 20 14
      vertex 0 0 19
      vertex 0 20 19
    endloop
  endfacet
  facet normal 0 -1 0
    outer loop
      vertex 0 0 19
      vertex 0 0 14
      vertex 20 0 14
    endloop
  endfacet
  facet normal 0 -1 0
    outer loop
      vertex 20 0 19
      vertex 0 0 19
      vertex 20 0 14
    endloop
  endfacet
  facet normal 0 0 -1
    outer loop
      vertex 0 0 14
      vertex 0 20 14
      vertex 20 0 14
    endloop
  endfacet
  facet normal 0 0 -1
    outer loop
      vertex 20 0 14
      vertex 0 20 14
      vertex 20 20 14
    endloop
  endfacet
  facet normal 0 1 0
    outer loop
      vertex 0 20 14
      vertex 0 20 19
      vertex 20 20 14
    endloop
  endfacet
  facet normal 0 1 0
    outer loop
      vertex 20 20 14
      vertex 0 20 19
      vertex 20 20 19
    endloop
  endfacet
  facet normal 0 0 1
    outer loop
      vertex 0 20 19
      vertex 0 0 19
      vertex 20 0 19
    endloop
  endfacet
  facet normal 0 0 1
    outer loop
      vertex 20 20 19
      vertex 0 20 19
      vertex 20 0 19
    endloop
  endfacet
  facet normal 1 0 0
    outer loop
      vertex 20 0 19
      vertex 20 0 14
      vertex 20 20 14
    endloop
  endfacet
  facet normal 1 0 0
    outer loop
      vertex 20 20 19
      vertex 20 0 19
      vertex 20 20 14
    endloop
  endfacet
endsolid OpenSCAD_Model
